<?xml version="1.0" standalone="no"?>
<!DOCTYPE svg PUBLIC "-//W3C//DTD SVG 20010904//EN"
 "http://www.w3.org/TR/2001/REC-SVG-20010904/DTD/svg10.dtd">
<svg version="1.0" xmlns="http://www.w3.org/2000/svg"
 width="141.000000pt" height="141.000000pt" viewBox="0 0 141.000000 141.000000"
 preserveAspectRatio="xMidYMid meet">
<metadata>
Created by potrace 1.11, written by Peter Selinger 2001-2013
</metadata>
<g transform="translate(0.000000,141.000000) scale(0.100000,-0.100000)"
fill="#000000" stroke="none">
<path d="M642 1278 c-4 -53 -50 -167 -95 -236 -82 -124 -84 -148 -5 -64 77 82
148 210 148 265 -1 13 -8 1 -18 -28 -19 -54 -58 -126 -91 -165 -13 -16 -8 -2
13 40 28 56 42 100 61 192 2 10 0 20 -4 22 -4 3 -8 -9 -9 -26z"/>
<path d="M854 1111 c-149 -42 -293 -163 -356 -301 -23 -50 -46 -70 -32 -27 20
60 8 147 -25 180 -18 19 -19 19 -39 -1 -19 -19 -20 -23 -6 -69 22 -69 12 -124
-42 -236 -35 -73 -44 -101 -36 -109 9 -9 17 -7 32 7 28 26 76 103 90 147 6 21
16 41 22 44 7 4 7 0 0 -13 -12 -21 -37 -125 -47 -191 -8 -55 -9 -224 -1 -277
24 -171 31 -175 31 -17 1 144 7 200 31 295 52 203 175 371 319 438 64 29 74
32 117 30 45 -2 62 -59 44 -151 -18 -93 -106 -201 -210 -260 l-58 -33 65 -66
c140 -144 141 -205 6 -204 -72 0 -114 24 -154 85 -16 26 -33 47 -37 47 -14 2
21 -90 46 -124 27 -35 98 -83 133 -89 76 -15 124 -9 172 22 40 26 42 29 38 68
-5 54 -44 119 -117 197 l-58 63 54 28 c94 50 218 209 240 308 32 150 21 199
-50 216 -57 14 -101 12 -172 -7z"/>
</g>
</svg>
